<mxGraphModel dx="308" dy="327" grid="0" gridSize="10" guides="1" tooltips="1" connect="1" arrows="1" fold="1" page="1" pageScale="1" pageWidth="980" pageHeight="1390" math="0" shadow="0"><root><mxCell id="0"/><mxCell id="1" parent="0"/><mxCell id="elCqUAHHdQK55MtLX6_z-1" value="" style="group" parent="1" vertex="1" connectable="0"><mxGeometry x="33" y="54" width="152" height="132" as="geometry"/></mxCell><mxCell id="elCqUAHHdQK55MtLX6_z-2" value="" style="group" parent="elCqUAHHdQK55MtLX6_z-1" vertex="1" connectable="0"><mxGeometry x="24" y="9" width="128" height="123" as="geometry"/></mxCell><mxCell id="elCqUAHHdQK55MtLX6_z-3" value="66" style="ellipse;whiteSpace=wrap;html=1;aspect=fixed;" parent="elCqUAHHdQK55MtLX6_z-2" vertex="1"><mxGeometry x="72" width="27" height="27" as="geometry"/></mxCell><mxCell id="elCqUAHHdQK55MtLX6_z-4" value="60" style="ellipse;whiteSpace=wrap;html=1;aspect=fixed;" parent="elCqUAHHdQK55MtLX6_z-2" vertex="1"><mxGeometry x="34" y="52" width="27" height="27" as="geometry"/></mxCell><mxCell id="elCqUAHHdQK55MtLX6_z-5" value="" style="rounded=0;orthogonalLoop=1;jettySize=auto;html=1;endArrow=none;endFill=0;" parent="elCqUAHHdQK55MtLX6_z-2" source="elCqUAHHdQK55MtLX6_z-3" target="elCqUAHHdQK55MtLX6_z-4" edge="1"><mxGeometry relative="1" as="geometry"/></mxCell><mxCell id="elCqUAHHdQK55MtLX6_z-6" value="77" style="ellipse;whiteSpace=wrap;html=1;aspect=fixed;" parent="elCqUAHHdQK55MtLX6_z-2" vertex="1"><mxGeometry x="101" y="52" width="27" height="27" as="geometry"/></mxCell><mxCell id="elCqUAHHdQK55MtLX6_z-7" value="" style="edgeStyle=none;rounded=0;orthogonalLoop=1;jettySize=auto;html=1;endArrow=none;endFill=0;" parent="elCqUAHHdQK55MtLX6_z-2" source="elCqUAHHdQK55MtLX6_z-3" target="elCqUAHHdQK55MtLX6_z-6" edge="1"><mxGeometry relative="1" as="geometry"/></mxCell><mxCell id="elCqUAHHdQK55MtLX6_z-8" value="50" style="ellipse;whiteSpace=wrap;html=1;aspect=fixed;" parent="elCqUAHHdQK55MtLX6_z-2" vertex="1"><mxGeometry y="96" width="27" height="27" as="geometry"/></mxCell><mxCell id="elCqUAHHdQK55MtLX6_z-9" value="" style="edgeStyle=none;rounded=0;orthogonalLoop=1;jettySize=auto;html=1;endArrow=none;endFill=0;" parent="elCqUAHHdQK55MtLX6_z-2" source="elCqUAHHdQK55MtLX6_z-4" target="elCqUAHHdQK55MtLX6_z-8" edge="1"><mxGeometry relative="1" as="geometry"/></mxCell><mxCell id="elCqUAHHdQK55MtLX6_z-10" value="65" style="ellipse;whiteSpace=wrap;html=1;aspect=fixed;" parent="elCqUAHHdQK55MtLX6_z-2" vertex="1"><mxGeometry x="63" y="96" width="27" height="27" as="geometry"/></mxCell><mxCell id="elCqUAHHdQK55MtLX6_z-11" value="" style="edgeStyle=none;rounded=0;orthogonalLoop=1;jettySize=auto;html=1;endArrow=none;endFill=0;" parent="elCqUAHHdQK55MtLX6_z-2" source="elCqUAHHdQK55MtLX6_z-4" target="elCqUAHHdQK55MtLX6_z-10" edge="1"><mxGeometry relative="1" as="geometry"/></mxCell><mxCell id="elCqUAHHdQK55MtLX6_z-12" value="原始树结构" style="text;html=1;align=center;verticalAlign=middle;resizable=0;points=[];autosize=1;strokeColor=none;fillColor=none;" parent="elCqUAHHdQK55MtLX6_z-1" vertex="1"><mxGeometry width="78" height="26" as="geometry"/></mxCell><mxCell id="elCqUAHHdQK55MtLX6_z-13" value="" style="group" parent="1" vertex="1" connectable="0"><mxGeometry x="46" y="681" width="179" height="132" as="geometry"/></mxCell><mxCell id="elCqUAHHdQK55MtLX6_z-14" value="原始树结构" style="text;html=1;align=center;verticalAlign=middle;resizable=0;points=[];autosize=1;strokeColor=none;fillColor=none;" parent="elCqUAHHdQK55MtLX6_z-13" vertex="1"><mxGeometry width="78" height="26" as="geometry"/></mxCell><mxCell id="elCqUAHHdQK55MtLX6_z-15" value="66" style="ellipse;whiteSpace=wrap;html=1;aspect=fixed;" parent="elCqUAHHdQK55MtLX6_z-13" vertex="1"><mxGeometry x="96" y="9" width="27" height="27" as="geometry"/></mxCell><mxCell id="elCqUAHHdQK55MtLX6_z-16" value="60" style="ellipse;whiteSpace=wrap;html=1;aspect=fixed;" parent="elCqUAHHdQK55MtLX6_z-13" vertex="1"><mxGeometry x="58" y="61" width="27" height="27" as="geometry"/></mxCell><mxCell id="elCqUAHHdQK55MtLX6_z-17" value="" style="rounded=0;orthogonalLoop=1;jettySize=auto;html=1;endArrow=none;endFill=0;" parent="elCqUAHHdQK55MtLX6_z-13" source="elCqUAHHdQK55MtLX6_z-15" target="elCqUAHHdQK55MtLX6_z-16" edge="1"><mxGeometry relative="1" as="geometry"/></mxCell><mxCell id="elCqUAHHdQK55MtLX6_z-18" value="78" style="ellipse;whiteSpace=wrap;html=1;aspect=fixed;" parent="elCqUAHHdQK55MtLX6_z-13" vertex="1"><mxGeometry x="125" y="61" width="27" height="27" as="geometry"/></mxCell><mxCell id="elCqUAHHdQK55MtLX6_z-19" value="" style="edgeStyle=none;rounded=0;orthogonalLoop=1;jettySize=auto;html=1;endArrow=none;endFill=0;" parent="elCqUAHHdQK55MtLX6_z-13" source="elCqUAHHdQK55MtLX6_z-15" target="elCqUAHHdQK55MtLX6_z-18" edge="1"><mxGeometry relative="1" as="geometry"/></mxCell><mxCell id="elCqUAHHdQK55MtLX6_z-20" value="70" style="ellipse;whiteSpace=wrap;html=1;aspect=fixed;" parent="elCqUAHHdQK55MtLX6_z-13" vertex="1"><mxGeometry x="92" y="105" width="27" height="27" as="geometry"/></mxCell><mxCell id="elCqUAHHdQK55MtLX6_z-21" value="" style="edgeStyle=none;rounded=0;orthogonalLoop=1;jettySize=auto;html=1;endArrow=none;endFill=0;" parent="elCqUAHHdQK55MtLX6_z-13" source="elCqUAHHdQK55MtLX6_z-18" target="elCqUAHHdQK55MtLX6_z-20" edge="1"><mxGeometry relative="1" as="geometry"/></mxCell><mxCell id="elCqUAHHdQK55MtLX6_z-22" value="80" style="ellipse;whiteSpace=wrap;html=1;aspect=fixed;" parent="elCqUAHHdQK55MtLX6_z-13" vertex="1"><mxGeometry x="152" y="105" width="27" height="27" as="geometry"/></mxCell><mxCell id="elCqUAHHdQK55MtLX6_z-23" value="" style="edgeStyle=none;rounded=0;orthogonalLoop=1;jettySize=auto;html=1;endArrow=none;endFill=0;" parent="elCqUAHHdQK55MtLX6_z-13" source="elCqUAHHdQK55MtLX6_z-18" target="elCqUAHHdQK55MtLX6_z-22" edge="1"><mxGeometry relative="1" as="geometry"/></mxCell><mxCell id="elCqUAHHdQK55MtLX6_z-24" value="插入90后&lt;br&gt;失衡" style="text;html=1;align=center;verticalAlign=middle;resizable=0;points=[];autosize=1;strokeColor=none;fillColor=none;" parent="1" vertex="1"><mxGeometry x="19" y="804" width="67" height="41" as="geometry"/></mxCell><mxCell id="elCqUAHHdQK55MtLX6_z-25" value="插入79后&lt;br&gt;失衡" style="text;html=1;align=center;verticalAlign=middle;resizable=0;points=[];autosize=1;strokeColor=none;fillColor=none;" parent="1" vertex="1"><mxGeometry x="423" y="802" width="67" height="41" as="geometry"/></mxCell><mxCell id="elCqUAHHdQK55MtLX6_z-26" value="插入52节点&lt;br&gt;失衡" style="text;html=1;align=center;verticalAlign=middle;resizable=0;points=[];autosize=1;strokeColor=none;fillColor=none;" parent="1" vertex="1"><mxGeometry x="402" y="212" width="79" height="41" as="geometry"/></mxCell><mxCell id="elCqUAHHdQK55MtLX6_z-27" value="52" style="ellipse;whiteSpace=wrap;html=1;aspect=fixed;fillColor=#ffe6cc;strokeColor=#d79b00;" parent="1" vertex="1"><mxGeometry x="466" y="389" width="27" height="27" as="geometry"/></mxCell><mxCell id="elCqUAHHdQK55MtLX6_z-28" value="" style="edgeStyle=none;rounded=0;orthogonalLoop=1;jettySize=auto;html=1;endArrow=none;endFill=0;" parent="1" source="elCqUAHHdQK55MtLX6_z-34" target="elCqUAHHdQK55MtLX6_z-27" edge="1"><mxGeometry relative="1" as="geometry"/></mxCell><mxCell id="elCqUAHHdQK55MtLX6_z-29" value="66" style="ellipse;whiteSpace=wrap;html=1;aspect=fixed;" parent="1" vertex="1"><mxGeometry x="508" y="262" width="27" height="27" as="geometry"/></mxCell><mxCell id="elCqUAHHdQK55MtLX6_z-30" value="60" style="ellipse;whiteSpace=wrap;html=1;aspect=fixed;" parent="1" vertex="1"><mxGeometry x="474" y="306" width="27" height="27" as="geometry"/></mxCell><mxCell id="elCqUAHHdQK55MtLX6_z-31" value="" style="rounded=0;orthogonalLoop=1;jettySize=auto;html=1;endArrow=none;endFill=0;" parent="1" source="elCqUAHHdQK55MtLX6_z-29" target="elCqUAHHdQK55MtLX6_z-30" edge="1"><mxGeometry relative="1" as="geometry"/></mxCell><mxCell id="elCqUAHHdQK55MtLX6_z-32" value="77" style="ellipse;whiteSpace=wrap;html=1;aspect=fixed;" parent="1" vertex="1"><mxGeometry x="541" y="306" width="27" height="27" as="geometry"/></mxCell><mxCell id="elCqUAHHdQK55MtLX6_z-33" value="" style="edgeStyle=none;rounded=0;orthogonalLoop=1;jettySize=auto;html=1;endArrow=none;endFill=0;" parent="1" source="elCqUAHHdQK55MtLX6_z-29" target="elCqUAHHdQK55MtLX6_z-32" edge="1"><mxGeometry relative="1" as="geometry"/></mxCell><mxCell id="elCqUAHHdQK55MtLX6_z-34" value="50" style="ellipse;whiteSpace=wrap;html=1;aspect=fixed;" parent="1" vertex="1"><mxGeometry x="444.5" y="346" width="27" height="27" as="geometry"/></mxCell><mxCell id="elCqUAHHdQK55MtLX6_z-35" value="" style="edgeStyle=none;rounded=0;orthogonalLoop=1;jettySize=auto;html=1;endArrow=none;endFill=0;" parent="1" source="elCqUAHHdQK55MtLX6_z-30" target="elCqUAHHdQK55MtLX6_z-34" edge="1"><mxGeometry relative="1" as="geometry"/></mxCell><mxCell id="elCqUAHHdQK55MtLX6_z-36" value="65" style="ellipse;whiteSpace=wrap;html=1;aspect=fixed;" parent="1" vertex="1"><mxGeometry x="503" y="350" width="27" height="27" as="geometry"/></mxCell><mxCell id="elCqUAHHdQK55MtLX6_z-37" value="" style="edgeStyle=none;rounded=0;orthogonalLoop=1;jettySize=auto;html=1;endArrow=none;endFill=0;" parent="1" source="elCqUAHHdQK55MtLX6_z-30" target="elCqUAHHdQK55MtLX6_z-36" edge="1"><mxGeometry relative="1" as="geometry"/></mxCell><mxCell id="elCqUAHHdQK55MtLX6_z-38" value="插入30节点&lt;br&gt;失衡" style="text;html=1;align=center;verticalAlign=middle;resizable=0;points=[];autosize=1;strokeColor=none;fillColor=none;" parent="1" vertex="1"><mxGeometry x="41.5" y="217" width="79" height="41" as="geometry"/></mxCell><mxCell id="elCqUAHHdQK55MtLX6_z-39" value="30" style="ellipse;whiteSpace=wrap;html=1;aspect=fixed;fillColor=#ffe6cc;strokeColor=#d79b00;" parent="1" vertex="1"><mxGeometry x="37" y="379" width="27" height="27" as="geometry"/></mxCell><mxCell id="elCqUAHHdQK55MtLX6_z-40" value="" style="edgeStyle=none;rounded=0;orthogonalLoop=1;jettySize=auto;html=1;endArrow=none;endFill=0;" parent="1" source="elCqUAHHdQK55MtLX6_z-46" target="elCqUAHHdQK55MtLX6_z-39" edge="1"><mxGeometry relative="1" as="geometry"/></mxCell><mxCell id="elCqUAHHdQK55MtLX6_z-41" value="66" style="ellipse;whiteSpace=wrap;html=1;aspect=fixed;" parent="1" vertex="1"><mxGeometry x="129" y="262" width="27" height="27" as="geometry"/></mxCell><mxCell id="elCqUAHHdQK55MtLX6_z-42" value="60" style="ellipse;whiteSpace=wrap;html=1;aspect=fixed;" parent="1" vertex="1"><mxGeometry x="93.5" y="300" width="27" height="27" as="geometry"/></mxCell><mxCell id="elCqUAHHdQK55MtLX6_z-43" value="" style="rounded=0;orthogonalLoop=1;jettySize=auto;html=1;endArrow=none;endFill=0;fillColor=#008a00;strokeColor=#005700;" parent="1" source="elCqUAHHdQK55MtLX6_z-41" target="elCqUAHHdQK55MtLX6_z-42" edge="1"><mxGeometry relative="1" as="geometry"/></mxCell><mxCell id="elCqUAHHdQK55MtLX6_z-44" value="77" style="ellipse;whiteSpace=wrap;html=1;aspect=fixed;" parent="1" vertex="1"><mxGeometry x="160.5" y="300" width="27" height="27" as="geometry"/></mxCell><mxCell id="elCqUAHHdQK55MtLX6_z-45" value="" style="edgeStyle=none;rounded=0;orthogonalLoop=1;jettySize=auto;html=1;endArrow=none;endFill=0;" parent="1" source="elCqUAHHdQK55MtLX6_z-41" target="elCqUAHHdQK55MtLX6_z-44" edge="1"><mxGeometry relative="1" as="geometry"/></mxCell><mxCell id="elCqUAHHdQK55MtLX6_z-46" value="50" style="ellipse;whiteSpace=wrap;html=1;aspect=fixed;" parent="1" vertex="1"><mxGeometry x="64" y="340" width="27" height="27" as="geometry"/></mxCell><mxCell id="elCqUAHHdQK55MtLX6_z-47" value="" style="edgeStyle=none;rounded=0;orthogonalLoop=1;jettySize=auto;html=1;endArrow=none;endFill=0;fillColor=#a20025;strokeColor=#6F0000;" parent="1" source="elCqUAHHdQK55MtLX6_z-42" target="elCqUAHHdQK55MtLX6_z-46" edge="1"><mxGeometry relative="1" as="geometry"/></mxCell><mxCell id="elCqUAHHdQK55MtLX6_z-48" value="65" style="ellipse;whiteSpace=wrap;html=1;aspect=fixed;" parent="1" vertex="1"><mxGeometry x="122.5" y="344" width="27" height="27" as="geometry"/></mxCell><mxCell id="elCqUAHHdQK55MtLX6_z-49" value="" style="edgeStyle=none;rounded=0;orthogonalLoop=1;jettySize=auto;html=1;endArrow=none;endFill=0;" parent="1" source="elCqUAHHdQK55MtLX6_z-42" target="elCqUAHHdQK55MtLX6_z-48" edge="1"><mxGeometry relative="1" as="geometry"/></mxCell><mxCell id="elCqUAHHdQK55MtLX6_z-50" value="插入61后&lt;br&gt;失衡" style="text;html=1;align=center;verticalAlign=middle;resizable=0;points=[];autosize=1;strokeColor=none;fillColor=none;" parent="1" vertex="1"><mxGeometry x="21.5" y="427" width="67" height="41" as="geometry"/></mxCell><mxCell id="elCqUAHHdQK55MtLX6_z-51" value="61" style="ellipse;whiteSpace=wrap;html=1;aspect=fixed;fillColor=#ffe6cc;strokeColor=#d79b00;" parent="1" vertex="1"><mxGeometry x="88.5" y="603" width="27" height="27" as="geometry"/></mxCell><mxCell id="elCqUAHHdQK55MtLX6_z-52" value="" style="edgeStyle=none;rounded=0;orthogonalLoop=1;jettySize=auto;html=1;endArrow=none;endFill=0;" parent="1" source="elCqUAHHdQK55MtLX6_z-60" target="elCqUAHHdQK55MtLX6_z-51" edge="1"><mxGeometry relative="1" as="geometry"/></mxCell><mxCell id="elCqUAHHdQK55MtLX6_z-53" value="66" style="ellipse;whiteSpace=wrap;html=1;aspect=fixed;" parent="1" vertex="1"><mxGeometry x="122" y="463" width="27" height="27" as="geometry"/></mxCell><mxCell id="elCqUAHHdQK55MtLX6_z-54" value="60" style="ellipse;whiteSpace=wrap;html=1;aspect=fixed;" parent="1" vertex="1"><mxGeometry x="84" y="515" width="27" height="27" as="geometry"/></mxCell><mxCell id="elCqUAHHdQK55MtLX6_z-55" value="" style="rounded=0;orthogonalLoop=1;jettySize=auto;html=1;endArrow=none;endFill=0;fillColor=#008a00;strokeColor=#005700;" parent="1" source="elCqUAHHdQK55MtLX6_z-53" target="elCqUAHHdQK55MtLX6_z-54" edge="1"><mxGeometry relative="1" as="geometry"/></mxCell><mxCell id="elCqUAHHdQK55MtLX6_z-56" value="77" style="ellipse;whiteSpace=wrap;html=1;aspect=fixed;" parent="1" vertex="1"><mxGeometry x="151" y="515" width="27" height="27" as="geometry"/></mxCell><mxCell id="elCqUAHHdQK55MtLX6_z-57" value="" style="edgeStyle=none;rounded=0;orthogonalLoop=1;jettySize=auto;html=1;endArrow=none;endFill=0;" parent="1" source="elCqUAHHdQK55MtLX6_z-53" target="elCqUAHHdQK55MtLX6_z-56" edge="1"><mxGeometry relative="1" as="geometry"/></mxCell><mxCell id="elCqUAHHdQK55MtLX6_z-58" value="50" style="ellipse;whiteSpace=wrap;html=1;aspect=fixed;" parent="1" vertex="1"><mxGeometry x="50" y="559" width="27" height="27" as="geometry"/></mxCell><mxCell id="elCqUAHHdQK55MtLX6_z-59" value="" style="edgeStyle=none;rounded=0;orthogonalLoop=1;jettySize=auto;html=1;endArrow=none;endFill=0;" parent="1" source="elCqUAHHdQK55MtLX6_z-54" target="elCqUAHHdQK55MtLX6_z-58" edge="1"><mxGeometry relative="1" as="geometry"/></mxCell><mxCell id="elCqUAHHdQK55MtLX6_z-60" value="65" style="ellipse;whiteSpace=wrap;html=1;aspect=fixed;" parent="1" vertex="1"><mxGeometry x="113" y="559" width="27" height="27" as="geometry"/></mxCell><mxCell id="elCqUAHHdQK55MtLX6_z-61" value="" style="edgeStyle=none;rounded=0;orthogonalLoop=1;jettySize=auto;html=1;endArrow=none;endFill=0;fillColor=#a20025;strokeColor=#6F0000;" parent="1" source="elCqUAHHdQK55MtLX6_z-54" target="elCqUAHHdQK55MtLX6_z-60" edge="1"><mxGeometry relative="1" as="geometry"/></mxCell><mxCell id="elCqUAHHdQK55MtLX6_z-62" value="插入63后&lt;br&gt;失衡" style="text;html=1;align=center;verticalAlign=middle;resizable=0;points=[];autosize=1;strokeColor=none;fillColor=none;" parent="1" vertex="1"><mxGeometry x="447" y="447" width="67" height="41" as="geometry"/></mxCell><mxCell id="elCqUAHHdQK55MtLX6_z-63" value="63" style="ellipse;whiteSpace=wrap;html=1;aspect=fixed;fillColor=#ffe6cc;strokeColor=#d79b00;" parent="1" vertex="1"><mxGeometry x="552" y="600" width="27" height="27" as="geometry"/></mxCell><mxCell id="elCqUAHHdQK55MtLX6_z-64" value="" style="edgeStyle=none;rounded=0;orthogonalLoop=1;jettySize=auto;html=1;endArrow=none;endFill=0;" parent="1" source="elCqUAHHdQK55MtLX6_z-72" target="elCqUAHHdQK55MtLX6_z-63" edge="1"><mxGeometry relative="1" as="geometry"/></mxCell><mxCell id="elCqUAHHdQK55MtLX6_z-65" value="66" style="ellipse;whiteSpace=wrap;html=1;aspect=fixed;" parent="1" vertex="1"><mxGeometry x="537" y="463" width="27" height="27" as="geometry"/></mxCell><mxCell id="elCqUAHHdQK55MtLX6_z-66" value="60" style="ellipse;whiteSpace=wrap;html=1;aspect=fixed;" parent="1" vertex="1"><mxGeometry x="499" y="515" width="27" height="27" as="geometry"/></mxCell><mxCell id="elCqUAHHdQK55MtLX6_z-67" value="" style="rounded=0;orthogonalLoop=1;jettySize=auto;html=1;endArrow=none;endFill=0;" parent="1" source="elCqUAHHdQK55MtLX6_z-65" target="elCqUAHHdQK55MtLX6_z-66" edge="1"><mxGeometry relative="1" as="geometry"/></mxCell><mxCell id="elCqUAHHdQK55MtLX6_z-68" value="77" style="ellipse;whiteSpace=wrap;html=1;aspect=fixed;" parent="1" vertex="1"><mxGeometry x="566" y="515" width="27" height="27" as="geometry"/></mxCell><mxCell id="elCqUAHHdQK55MtLX6_z-69" value="" style="edgeStyle=none;rounded=0;orthogonalLoop=1;jettySize=auto;html=1;endArrow=none;endFill=0;" parent="1" source="elCqUAHHdQK55MtLX6_z-65" target="elCqUAHHdQK55MtLX6_z-68" edge="1"><mxGeometry relative="1" as="geometry"/></mxCell><mxCell id="elCqUAHHdQK55MtLX6_z-70" value="50" style="ellipse;whiteSpace=wrap;html=1;aspect=fixed;" parent="1" vertex="1"><mxGeometry x="465" y="559" width="27" height="27" as="geometry"/></mxCell><mxCell id="elCqUAHHdQK55MtLX6_z-71" value="" style="edgeStyle=none;rounded=0;orthogonalLoop=1;jettySize=auto;html=1;endArrow=none;endFill=0;" parent="1" source="elCqUAHHdQK55MtLX6_z-66" target="elCqUAHHdQK55MtLX6_z-70" edge="1"><mxGeometry relative="1" as="geometry"/></mxCell><mxCell id="elCqUAHHdQK55MtLX6_z-72" value="62" style="ellipse;whiteSpace=wrap;html=1;aspect=fixed;" parent="1" vertex="1"><mxGeometry x="528" y="559" width="27" height="27" as="geometry"/></mxCell><mxCell id="elCqUAHHdQK55MtLX6_z-73" value="" style="edgeStyle=none;rounded=0;orthogonalLoop=1;jettySize=auto;html=1;endArrow=none;endFill=0;" parent="1" source="elCqUAHHdQK55MtLX6_z-66" target="elCqUAHHdQK55MtLX6_z-72" edge="1"><mxGeometry relative="1" as="geometry"/></mxCell><mxCell id="elCqUAHHdQK55MtLX6_z-74" value="66" style="ellipse;whiteSpace=wrap;html=1;aspect=fixed;" parent="1" vertex="1"><mxGeometry x="115" y="848" width="27" height="27" as="geometry"/></mxCell><mxCell id="elCqUAHHdQK55MtLX6_z-75" value="60" style="ellipse;whiteSpace=wrap;html=1;aspect=fixed;" parent="1" vertex="1"><mxGeometry x="77" y="900" width="27" height="27" as="geometry"/></mxCell><mxCell id="elCqUAHHdQK55MtLX6_z-76" value="" style="rounded=0;orthogonalLoop=1;jettySize=auto;html=1;endArrow=none;endFill=0;" parent="1" source="elCqUAHHdQK55MtLX6_z-74" target="elCqUAHHdQK55MtLX6_z-75" edge="1"><mxGeometry relative="1" as="geometry"/></mxCell><mxCell id="elCqUAHHdQK55MtLX6_z-77" value="78" style="ellipse;whiteSpace=wrap;html=1;aspect=fixed;" parent="1" vertex="1"><mxGeometry x="144" y="900" width="27" height="27" as="geometry"/></mxCell><mxCell id="elCqUAHHdQK55MtLX6_z-78" value="" style="edgeStyle=none;rounded=0;orthogonalLoop=1;jettySize=auto;html=1;endArrow=none;endFill=0;" parent="1" source="elCqUAHHdQK55MtLX6_z-74" target="elCqUAHHdQK55MtLX6_z-77" edge="1"><mxGeometry relative="1" as="geometry"/></mxCell><mxCell id="elCqUAHHdQK55MtLX6_z-79" value="70" style="ellipse;whiteSpace=wrap;html=1;aspect=fixed;" parent="1" vertex="1"><mxGeometry x="111" y="944" width="27" height="27" as="geometry"/></mxCell><mxCell id="elCqUAHHdQK55MtLX6_z-80" value="" style="edgeStyle=none;rounded=0;orthogonalLoop=1;jettySize=auto;html=1;endArrow=none;endFill=0;" parent="1" source="elCqUAHHdQK55MtLX6_z-77" target="elCqUAHHdQK55MtLX6_z-79" edge="1"><mxGeometry relative="1" as="geometry"/></mxCell><mxCell id="elCqUAHHdQK55MtLX6_z-81" style="edgeStyle=none;rounded=0;orthogonalLoop=1;jettySize=auto;html=1;endArrow=none;endFill=0;" parent="1" source="elCqUAHHdQK55MtLX6_z-82" edge="1"><mxGeometry relative="1" as="geometry"><mxPoint x="157.33333333333348" y="986.3333333333333" as="targetPoint"/></mxGeometry></mxCell><mxCell id="elCqUAHHdQK55MtLX6_z-82" value="80" style="ellipse;whiteSpace=wrap;html=1;aspect=fixed;" parent="1" vertex="1"><mxGeometry x="171" y="944" width="27" height="27" as="geometry"/></mxCell><mxCell id="elCqUAHHdQK55MtLX6_z-83" value="" style="edgeStyle=none;rounded=0;orthogonalLoop=1;jettySize=auto;html=1;endArrow=none;endFill=0;" parent="1" source="elCqUAHHdQK55MtLX6_z-77" target="elCqUAHHdQK55MtLX6_z-82" edge="1"><mxGeometry relative="1" as="geometry"/></mxCell><mxCell id="elCqUAHHdQK55MtLX6_z-84" value="90" style="ellipse;whiteSpace=wrap;html=1;aspect=fixed;fillColor=#ffe6cc;strokeColor=#d79b00;" parent="1" vertex="1"><mxGeometry x="195" y="993" width="27" height="27" as="geometry"/></mxCell><mxCell id="elCqUAHHdQK55MtLX6_z-85" value="" style="edgeStyle=none;rounded=0;orthogonalLoop=1;jettySize=auto;html=1;endArrow=none;endFill=0;" parent="1" source="elCqUAHHdQK55MtLX6_z-82" target="elCqUAHHdQK55MtLX6_z-84" edge="1"><mxGeometry relative="1" as="geometry"/></mxCell><mxCell id="elCqUAHHdQK55MtLX6_z-86" value="66" style="ellipse;whiteSpace=wrap;html=1;aspect=fixed;" parent="1" vertex="1"><mxGeometry x="490" y="840" width="27" height="27" as="geometry"/></mxCell><mxCell id="elCqUAHHdQK55MtLX6_z-87" value="60" style="ellipse;whiteSpace=wrap;html=1;aspect=fixed;" parent="1" vertex="1"><mxGeometry x="452" y="892" width="27" height="27" as="geometry"/></mxCell><mxCell id="elCqUAHHdQK55MtLX6_z-88" value="" style="rounded=0;orthogonalLoop=1;jettySize=auto;html=1;endArrow=none;endFill=0;" parent="1" source="elCqUAHHdQK55MtLX6_z-86" target="elCqUAHHdQK55MtLX6_z-87" edge="1"><mxGeometry relative="1" as="geometry"/></mxCell><mxCell id="elCqUAHHdQK55MtLX6_z-89" value="78" style="ellipse;whiteSpace=wrap;html=1;aspect=fixed;" parent="1" vertex="1"><mxGeometry x="519" y="892" width="27" height="27" as="geometry"/></mxCell><mxCell id="elCqUAHHdQK55MtLX6_z-90" value="" style="edgeStyle=none;rounded=0;orthogonalLoop=1;jettySize=auto;html=1;endArrow=none;endFill=0;" parent="1" source="elCqUAHHdQK55MtLX6_z-86" target="elCqUAHHdQK55MtLX6_z-89" edge="1"><mxGeometry relative="1" as="geometry"/></mxCell><mxCell id="elCqUAHHdQK55MtLX6_z-91" value="70" style="ellipse;whiteSpace=wrap;html=1;aspect=fixed;" parent="1" vertex="1"><mxGeometry x="486" y="936" width="27" height="27" as="geometry"/></mxCell><mxCell id="elCqUAHHdQK55MtLX6_z-92" value="" style="edgeStyle=none;rounded=0;orthogonalLoop=1;jettySize=auto;html=1;endArrow=none;endFill=0;" parent="1" source="elCqUAHHdQK55MtLX6_z-89" target="elCqUAHHdQK55MtLX6_z-91" edge="1"><mxGeometry relative="1" as="geometry"/></mxCell><mxCell id="elCqUAHHdQK55MtLX6_z-93" value="80" style="ellipse;whiteSpace=wrap;html=1;aspect=fixed;" parent="1" vertex="1"><mxGeometry x="546" y="936" width="27" height="27" as="geometry"/></mxCell><mxCell id="elCqUAHHdQK55MtLX6_z-94" value="" style="edgeStyle=none;rounded=0;orthogonalLoop=1;jettySize=auto;html=1;endArrow=none;endFill=0;" parent="1" source="elCqUAHHdQK55MtLX6_z-89" target="elCqUAHHdQK55MtLX6_z-93" edge="1"><mxGeometry relative="1" as="geometry"/></mxCell><mxCell id="elCqUAHHdQK55MtLX6_z-95" value="79" style="ellipse;whiteSpace=wrap;html=1;aspect=fixed;fillColor=#ffe6cc;strokeColor=#d79b00;" parent="1" vertex="1"><mxGeometry x="522" y="980" width="27" height="27" as="geometry"/></mxCell><mxCell id="elCqUAHHdQK55MtLX6_z-96" value="" style="edgeStyle=none;rounded=0;orthogonalLoop=1;jettySize=auto;html=1;endArrow=none;endFill=0;" parent="1" source="elCqUAHHdQK55MtLX6_z-93" target="elCqUAHHdQK55MtLX6_z-95" edge="1"><mxGeometry relative="1" as="geometry"/></mxCell><mxCell id="elCqUAHHdQK55MtLX6_z-97" value="插入72后&lt;br&gt;失衡" style="text;html=1;align=center;verticalAlign=middle;resizable=0;points=[];autosize=1;strokeColor=none;fillColor=none;" parent="1" vertex="1"><mxGeometry x="30" y="1033" width="67" height="41" as="geometry"/></mxCell><mxCell id="elCqUAHHdQK55MtLX6_z-98" value="66" style="ellipse;whiteSpace=wrap;html=1;aspect=fixed;" parent="1" vertex="1"><mxGeometry x="88" y="1079" width="27" height="27" as="geometry"/></mxCell><mxCell id="elCqUAHHdQK55MtLX6_z-99" value="60" style="ellipse;whiteSpace=wrap;html=1;aspect=fixed;" parent="1" vertex="1"><mxGeometry x="50" y="1131" width="27" height="27" as="geometry"/></mxCell><mxCell id="elCqUAHHdQK55MtLX6_z-100" value="" style="rounded=0;orthogonalLoop=1;jettySize=auto;html=1;endArrow=none;endFill=0;" parent="1" source="elCqUAHHdQK55MtLX6_z-98" target="elCqUAHHdQK55MtLX6_z-99" edge="1"><mxGeometry relative="1" as="geometry"/></mxCell><mxCell id="elCqUAHHdQK55MtLX6_z-101" value="78" style="ellipse;whiteSpace=wrap;html=1;aspect=fixed;" parent="1" vertex="1"><mxGeometry x="117" y="1131" width="27" height="27" as="geometry"/></mxCell><mxCell id="elCqUAHHdQK55MtLX6_z-102" value="" style="edgeStyle=none;rounded=0;orthogonalLoop=1;jettySize=auto;html=1;endArrow=none;endFill=0;" parent="1" source="elCqUAHHdQK55MtLX6_z-98" target="elCqUAHHdQK55MtLX6_z-101" edge="1"><mxGeometry relative="1" as="geometry"/></mxCell><mxCell id="elCqUAHHdQK55MtLX6_z-103" value="70" style="ellipse;whiteSpace=wrap;html=1;aspect=fixed;" parent="1" vertex="1"><mxGeometry x="84" y="1175" width="27" height="27" as="geometry"/></mxCell><mxCell id="elCqUAHHdQK55MtLX6_z-104" value="" style="edgeStyle=none;rounded=0;orthogonalLoop=1;jettySize=auto;html=1;endArrow=none;endFill=0;" parent="1" source="elCqUAHHdQK55MtLX6_z-101" target="elCqUAHHdQK55MtLX6_z-103" edge="1"><mxGeometry relative="1" as="geometry"/></mxCell><mxCell id="elCqUAHHdQK55MtLX6_z-105" value="80" style="ellipse;whiteSpace=wrap;html=1;aspect=fixed;" parent="1" vertex="1"><mxGeometry x="144" y="1175" width="27" height="27" as="geometry"/></mxCell><mxCell id="elCqUAHHdQK55MtLX6_z-106" value="" style="edgeStyle=none;rounded=0;orthogonalLoop=1;jettySize=auto;html=1;endArrow=none;endFill=0;" parent="1" source="elCqUAHHdQK55MtLX6_z-101" target="elCqUAHHdQK55MtLX6_z-105" edge="1"><mxGeometry relative="1" as="geometry"/></mxCell><mxCell id="elCqUAHHdQK55MtLX6_z-107" value="72" style="ellipse;whiteSpace=wrap;html=1;aspect=fixed;fillColor=#ffe6cc;strokeColor=#d79b00;" parent="1" vertex="1"><mxGeometry x="108" y="1219" width="27" height="27" as="geometry"/></mxCell><mxCell id="elCqUAHHdQK55MtLX6_z-108" value="" style="edgeStyle=none;rounded=0;orthogonalLoop=1;jettySize=auto;html=1;endArrow=none;endFill=0;" parent="1" source="elCqUAHHdQK55MtLX6_z-103" target="elCqUAHHdQK55MtLX6_z-107" edge="1"><mxGeometry relative="1" as="geometry"/></mxCell><mxCell id="elCqUAHHdQK55MtLX6_z-109" value="插入68后&lt;br&gt;失衡" style="text;html=1;align=center;verticalAlign=middle;resizable=0;points=[];autosize=1;strokeColor=none;fillColor=none;" parent="1" vertex="1"><mxGeometry x="549" y="1066" width="67" height="41" as="geometry"/></mxCell><mxCell id="elCqUAHHdQK55MtLX6_z-110" value="66" style="ellipse;whiteSpace=wrap;html=1;aspect=fixed;" parent="1" vertex="1"><mxGeometry x="620" y="1086" width="27" height="27" as="geometry"/></mxCell><mxCell id="elCqUAHHdQK55MtLX6_z-111" value="60" style="ellipse;whiteSpace=wrap;html=1;aspect=fixed;" parent="1" vertex="1"><mxGeometry x="582" y="1138" width="27" height="27" as="geometry"/></mxCell><mxCell id="elCqUAHHdQK55MtLX6_z-112" value="" style="rounded=0;orthogonalLoop=1;jettySize=auto;html=1;endArrow=none;endFill=0;" parent="1" source="elCqUAHHdQK55MtLX6_z-110" target="elCqUAHHdQK55MtLX6_z-111" edge="1"><mxGeometry relative="1" as="geometry"/></mxCell><mxCell id="elCqUAHHdQK55MtLX6_z-113" value="78" style="ellipse;whiteSpace=wrap;html=1;aspect=fixed;" parent="1" vertex="1"><mxGeometry x="649" y="1138" width="27" height="27" as="geometry"/></mxCell><mxCell id="elCqUAHHdQK55MtLX6_z-114" value="" style="edgeStyle=none;rounded=0;orthogonalLoop=1;jettySize=auto;html=1;endArrow=none;endFill=0;" parent="1" source="elCqUAHHdQK55MtLX6_z-110" target="elCqUAHHdQK55MtLX6_z-113" edge="1"><mxGeometry relative="1" as="geometry"/></mxCell><mxCell id="elCqUAHHdQK55MtLX6_z-115" value="70" style="ellipse;whiteSpace=wrap;html=1;aspect=fixed;" parent="1" vertex="1"><mxGeometry x="616" y="1182" width="27" height="27" as="geometry"/></mxCell><mxCell id="elCqUAHHdQK55MtLX6_z-116" value="" style="edgeStyle=none;rounded=0;orthogonalLoop=1;jettySize=auto;html=1;endArrow=none;endFill=0;" parent="1" source="elCqUAHHdQK55MtLX6_z-113" target="elCqUAHHdQK55MtLX6_z-115" edge="1"><mxGeometry relative="1" as="geometry"/></mxCell><mxCell id="elCqUAHHdQK55MtLX6_z-117" value="80" style="ellipse;whiteSpace=wrap;html=1;aspect=fixed;" parent="1" vertex="1"><mxGeometry x="676" y="1182" width="27" height="27" as="geometry"/></mxCell><mxCell id="elCqUAHHdQK55MtLX6_z-118" value="" style="edgeStyle=none;rounded=0;orthogonalLoop=1;jettySize=auto;html=1;endArrow=none;endFill=0;" parent="1" source="elCqUAHHdQK55MtLX6_z-113" target="elCqUAHHdQK55MtLX6_z-117" edge="1"><mxGeometry relative="1" as="geometry"/></mxCell><mxCell id="elCqUAHHdQK55MtLX6_z-119" value="72" style="ellipse;whiteSpace=wrap;html=1;aspect=fixed;fillColor=#ffe6cc;strokeColor=#d79b00;" parent="1" vertex="1"><mxGeometry x="591" y="1223" width="27" height="27" as="geometry"/></mxCell><mxCell id="elCqUAHHdQK55MtLX6_z-120" value="" style="edgeStyle=none;rounded=0;orthogonalLoop=1;jettySize=auto;html=1;endArrow=none;endFill=0;" parent="1" source="elCqUAHHdQK55MtLX6_z-115" target="elCqUAHHdQK55MtLX6_z-119" edge="1"><mxGeometry relative="1" as="geometry"/></mxCell><mxCell id="elCqUAHHdQK55MtLX6_z-121" value="1" style="ellipse;whiteSpace=wrap;html=1;aspect=fixed;" parent="1" vertex="1"><mxGeometry x="698" y="34" width="27" height="27" as="geometry"/></mxCell><mxCell id="elCqUAHHdQK55MtLX6_z-122" value="" style="edgeStyle=none;rounded=0;orthogonalLoop=1;jettySize=auto;html=1;endArrow=none;endFill=0;" parent="1" source="elCqUAHHdQK55MtLX6_z-123" target="elCqUAHHdQK55MtLX6_z-125" edge="1"><mxGeometry relative="1" as="geometry"/></mxCell><mxCell id="elCqUAHHdQK55MtLX6_z-123" value="2" style="ellipse;whiteSpace=wrap;html=1;aspect=fixed;" parent="1" vertex="1"><mxGeometry x="736" y="65" width="27" height="27" as="geometry"/></mxCell><mxCell id="elCqUAHHdQK55MtLX6_z-124" value="" style="edgeStyle=none;rounded=0;orthogonalLoop=1;jettySize=auto;html=1;endArrow=none;endFill=0;" parent="1" source="elCqUAHHdQK55MtLX6_z-121" target="elCqUAHHdQK55MtLX6_z-123" edge="1"><mxGeometry relative="1" as="geometry"/></mxCell><mxCell id="elCqUAHHdQK55MtLX6_z-125" value="3" style="ellipse;whiteSpace=wrap;html=1;aspect=fixed;" parent="1" vertex="1"><mxGeometry x="767" y="106.5" width="27" height="27" as="geometry"/></mxCell><mxCell id="elCqUAHHdQK55MtLX6_z-126" value="30" style="ellipse;whiteSpace=wrap;html=1;aspect=fixed;fillColor=#ffe6cc;strokeColor=#d79b00;" parent="1" vertex="1"><mxGeometry x="216" y="352" width="27" height="27" as="geometry"/></mxCell><mxCell id="elCqUAHHdQK55MtLX6_z-127" value="" style="edgeStyle=none;rounded=0;orthogonalLoop=1;jettySize=auto;html=1;endArrow=none;endFill=0;" parent="1" source="elCqUAHHdQK55MtLX6_z-133" target="elCqUAHHdQK55MtLX6_z-126" edge="1"><mxGeometry relative="1" as="geometry"/></mxCell><mxCell id="elCqUAHHdQK55MtLX6_z-128" value="66" style="ellipse;whiteSpace=wrap;html=1;aspect=fixed;" parent="1" vertex="1"><mxGeometry x="310" y="308" width="27" height="27" as="geometry"/></mxCell><mxCell id="elCqUAHHdQK55MtLX6_z-129" value="60" style="ellipse;whiteSpace=wrap;html=1;aspect=fixed;" parent="1" vertex="1"><mxGeometry x="278" y="268" width="27" height="27" as="geometry"/></mxCell><mxCell id="elCqUAHHdQK55MtLX6_z-130" value="" style="rounded=0;orthogonalLoop=1;jettySize=auto;html=1;endArrow=none;endFill=0;" parent="1" source="elCqUAHHdQK55MtLX6_z-128" target="elCqUAHHdQK55MtLX6_z-129" edge="1"><mxGeometry relative="1" as="geometry"/></mxCell><mxCell id="elCqUAHHdQK55MtLX6_z-131" value="77" style="ellipse;whiteSpace=wrap;html=1;aspect=fixed;" parent="1" vertex="1"><mxGeometry x="340" y="350" width="27" height="27" as="geometry"/></mxCell><mxCell id="elCqUAHHdQK55MtLX6_z-132" value="" style="edgeStyle=none;rounded=0;orthogonalLoop=1;jettySize=auto;html=1;endArrow=none;endFill=0;" parent="1" source="elCqUAHHdQK55MtLX6_z-128" target="elCqUAHHdQK55MtLX6_z-131" edge="1"><mxGeometry relative="1" as="geometry"/></mxCell><mxCell id="elCqUAHHdQK55MtLX6_z-133" value="50" style="ellipse;whiteSpace=wrap;html=1;aspect=fixed;" parent="1" vertex="1"><mxGeometry x="247" y="308" width="27" height="27" as="geometry"/></mxCell><mxCell id="elCqUAHHdQK55MtLX6_z-134" value="" style="edgeStyle=none;rounded=0;orthogonalLoop=1;jettySize=auto;html=1;endArrow=none;endFill=0;" parent="1" source="elCqUAHHdQK55MtLX6_z-129" target="elCqUAHHdQK55MtLX6_z-133" edge="1"><mxGeometry relative="1" as="geometry"/></mxCell><mxCell id="elCqUAHHdQK55MtLX6_z-135" value="65" style="ellipse;whiteSpace=wrap;html=1;aspect=fixed;" parent="1" vertex="1"><mxGeometry x="286.5" y="352" width="27" height="27" as="geometry"/></mxCell><mxCell id="elCqUAHHdQK55MtLX6_z-136" value="" style="edgeStyle=none;rounded=0;orthogonalLoop=1;jettySize=auto;html=1;endArrow=none;endFill=0;exitX=0;exitY=1;exitDx=0;exitDy=0;" parent="1" source="elCqUAHHdQK55MtLX6_z-128" target="elCqUAHHdQK55MtLX6_z-135" edge="1"><mxGeometry relative="1" as="geometry"><mxPoint x="300" y="331" as="sourcePoint"/></mxGeometry></mxCell><mxCell id="elCqUAHHdQK55MtLX6_z-137" value="61" style="ellipse;whiteSpace=wrap;html=1;aspect=fixed;fillColor=#ffe6cc;strokeColor=#d79b00;" parent="1" vertex="1"><mxGeometry x="268" y="551" width="27" height="27" as="geometry"/></mxCell><mxCell id="elCqUAHHdQK55MtLX6_z-138" value="" style="edgeStyle=none;rounded=0;orthogonalLoop=1;jettySize=auto;html=1;endArrow=none;endFill=0;exitX=1;exitY=1;exitDx=0;exitDy=0;" parent="1" source="elCqUAHHdQK55MtLX6_z-140" target="elCqUAHHdQK55MtLX6_z-137" edge="1"><mxGeometry relative="1" as="geometry"><mxPoint x="264" y="579" as="sourcePoint"/></mxGeometry></mxCell><mxCell id="elCqUAHHdQK55MtLX6_z-139" value="66" style="ellipse;whiteSpace=wrap;html=1;aspect=fixed;" parent="1" vertex="1"><mxGeometry x="317" y="504" width="27" height="27" as="geometry"/></mxCell><mxCell id="elCqUAHHdQK55MtLX6_z-140" value="60" style="ellipse;whiteSpace=wrap;html=1;aspect=fixed;" parent="1" vertex="1"><mxGeometry x="243" y="506" width="27" height="27" as="geometry"/></mxCell><mxCell id="elCqUAHHdQK55MtLX6_z-141" value="" style="rounded=0;orthogonalLoop=1;jettySize=auto;html=1;endArrow=none;endFill=0;entryX=1;entryY=1;entryDx=0;entryDy=0;" parent="1" source="elCqUAHHdQK55MtLX6_z-139" target="elCqUAHHdQK55MtLX6_z-146" edge="1"><mxGeometry relative="1" as="geometry"><mxPoint x="268" y="499" as="targetPoint"/></mxGeometry></mxCell><mxCell id="elCqUAHHdQK55MtLX6_z-142" value="77" style="ellipse;whiteSpace=wrap;html=1;aspect=fixed;" parent="1" vertex="1"><mxGeometry x="347" y="542" width="27" height="27" as="geometry"/></mxCell><mxCell id="elCqUAHHdQK55MtLX6_z-143" value="" style="edgeStyle=none;rounded=0;orthogonalLoop=1;jettySize=auto;html=1;endArrow=none;endFill=0;" parent="1" source="elCqUAHHdQK55MtLX6_z-139" target="elCqUAHHdQK55MtLX6_z-142" edge="1"><mxGeometry relative="1" as="geometry"/></mxCell><mxCell id="elCqUAHHdQK55MtLX6_z-144" value="50" style="ellipse;whiteSpace=wrap;html=1;aspect=fixed;" parent="1" vertex="1"><mxGeometry x="211" y="542" width="27" height="27" as="geometry"/></mxCell><mxCell id="elCqUAHHdQK55MtLX6_z-145" value="" style="edgeStyle=none;rounded=0;orthogonalLoop=1;jettySize=auto;html=1;endArrow=none;endFill=0;" parent="1" source="elCqUAHHdQK55MtLX6_z-140" target="elCqUAHHdQK55MtLX6_z-144" edge="1"><mxGeometry relative="1" as="geometry"/></mxCell><mxCell id="elCqUAHHdQK55MtLX6_z-146" value="65" style="ellipse;whiteSpace=wrap;html=1;aspect=fixed;" parent="1" vertex="1"><mxGeometry x="274" y="457" width="27" height="27" as="geometry"/></mxCell><mxCell id="elCqUAHHdQK55MtLX6_z-147" value="" style="edgeStyle=none;rounded=0;orthogonalLoop=1;jettySize=auto;html=1;endArrow=none;endFill=0;" parent="1" source="elCqUAHHdQK55MtLX6_z-140" target="elCqUAHHdQK55MtLX6_z-146" edge="1"><mxGeometry relative="1" as="geometry"/></mxCell><mxCell id="elCqUAHHdQK55MtLX6_z-148" value="LR" style="text;html=1;align=center;verticalAlign=middle;resizable=0;points=[];autosize=1;strokeColor=none;fillColor=none;" parent="1" vertex="1"><mxGeometry x="16" y="473" width="33" height="26" as="geometry"/></mxCell><mxCell id="elCqUAHHdQK55MtLX6_z-149" value="52" style="ellipse;whiteSpace=wrap;html=1;aspect=fixed;fillColor=#ffe6cc;strokeColor=#d79b00;" parent="1" vertex="1"><mxGeometry x="634" y="350" width="27" height="27" as="geometry"/></mxCell><mxCell id="elCqUAHHdQK55MtLX6_z-150" value="" style="edgeStyle=none;rounded=0;orthogonalLoop=1;jettySize=auto;html=1;endArrow=none;endFill=0;" parent="1" source="elCqUAHHdQK55MtLX6_z-156" target="elCqUAHHdQK55MtLX6_z-149" edge="1"><mxGeometry relative="1" as="geometry"/></mxCell><mxCell id="elCqUAHHdQK55MtLX6_z-151" value="66" style="ellipse;whiteSpace=wrap;html=1;aspect=fixed;" parent="1" vertex="1"><mxGeometry x="701" y="289" width="27" height="27" as="geometry"/></mxCell><mxCell id="elCqUAHHdQK55MtLX6_z-152" value="60" style="ellipse;whiteSpace=wrap;html=1;aspect=fixed;" parent="1" vertex="1"><mxGeometry x="668" y="249" width="27" height="27" as="geometry"/></mxCell><mxCell id="elCqUAHHdQK55MtLX6_z-153" value="" style="rounded=0;orthogonalLoop=1;jettySize=auto;html=1;endArrow=none;endFill=0;" parent="1" source="elCqUAHHdQK55MtLX6_z-151" target="elCqUAHHdQK55MtLX6_z-152" edge="1"><mxGeometry relative="1" as="geometry"/></mxCell><mxCell id="elCqUAHHdQK55MtLX6_z-154" value="77" style="ellipse;whiteSpace=wrap;html=1;aspect=fixed;" parent="1" vertex="1"><mxGeometry x="736" y="335" width="27" height="27" as="geometry"/></mxCell><mxCell id="elCqUAHHdQK55MtLX6_z-155" value="" style="edgeStyle=none;rounded=0;orthogonalLoop=1;jettySize=auto;html=1;endArrow=none;endFill=0;" parent="1" source="elCqUAHHdQK55MtLX6_z-151" target="elCqUAHHdQK55MtLX6_z-154" edge="1"><mxGeometry relative="1" as="geometry"/></mxCell><mxCell id="elCqUAHHdQK55MtLX6_z-156" value="50" style="ellipse;whiteSpace=wrap;html=1;aspect=fixed;" parent="1" vertex="1"><mxGeometry x="624" y="300" width="27" height="27" as="geometry"/></mxCell><mxCell id="elCqUAHHdQK55MtLX6_z-157" value="" style="edgeStyle=none;rounded=0;orthogonalLoop=1;jettySize=auto;html=1;endArrow=none;endFill=0;" parent="1" source="elCqUAHHdQK55MtLX6_z-152" target="elCqUAHHdQK55MtLX6_z-156" edge="1"><mxGeometry relative="1" as="geometry"/></mxCell><mxCell id="elCqUAHHdQK55MtLX6_z-158" value="65" style="ellipse;whiteSpace=wrap;html=1;aspect=fixed;" parent="1" vertex="1"><mxGeometry x="671" y="346" width="27" height="27" as="geometry"/></mxCell><mxCell id="elCqUAHHdQK55MtLX6_z-159" value="" style="edgeStyle=none;rounded=0;orthogonalLoop=1;jettySize=auto;html=1;endArrow=none;endFill=0;exitX=0.5;exitY=1;exitDx=0;exitDy=0;" parent="1" source="elCqUAHHdQK55MtLX6_z-151" target="elCqUAHHdQK55MtLX6_z-158" edge="1"><mxGeometry relative="1" as="geometry"><mxPoint x="687" y="323" as="sourcePoint"/></mxGeometry></mxCell><mxCell id="elCqUAHHdQK55MtLX6_z-160" value="66" style="ellipse;whiteSpace=wrap;html=1;aspect=fixed;" parent="1" vertex="1"><mxGeometry x="283" y="877" width="27" height="27" as="geometry"/></mxCell><mxCell id="elCqUAHHdQK55MtLX6_z-161" value="60" style="ellipse;whiteSpace=wrap;html=1;aspect=fixed;" parent="1" vertex="1"><mxGeometry x="243" y="922" width="27" height="27" as="geometry"/></mxCell><mxCell id="elCqUAHHdQK55MtLX6_z-162" value="" style="rounded=0;orthogonalLoop=1;jettySize=auto;html=1;endArrow=none;endFill=0;" parent="1" source="elCqUAHHdQK55MtLX6_z-160" target="elCqUAHHdQK55MtLX6_z-161" edge="1"><mxGeometry relative="1" as="geometry"/></mxCell><mxCell id="elCqUAHHdQK55MtLX6_z-163" value="78" style="ellipse;whiteSpace=wrap;html=1;aspect=fixed;" parent="1" vertex="1"><mxGeometry x="313" y="840" width="27" height="27" as="geometry"/></mxCell><mxCell id="elCqUAHHdQK55MtLX6_z-164" value="" style="edgeStyle=none;rounded=0;orthogonalLoop=1;jettySize=auto;html=1;endArrow=none;endFill=0;" parent="1" source="elCqUAHHdQK55MtLX6_z-160" target="elCqUAHHdQK55MtLX6_z-163" edge="1"><mxGeometry relative="1" as="geometry"/></mxCell><mxCell id="elCqUAHHdQK55MtLX6_z-165" value="70" style="ellipse;whiteSpace=wrap;html=1;aspect=fixed;" parent="1" vertex="1"><mxGeometry x="301" y="922" width="27" height="27" as="geometry"/></mxCell><mxCell id="elCqUAHHdQK55MtLX6_z-166" value="" style="edgeStyle=none;rounded=0;orthogonalLoop=1;jettySize=auto;html=1;endArrow=none;endFill=0;exitX=1;exitY=1;exitDx=0;exitDy=0;" parent="1" source="elCqUAHHdQK55MtLX6_z-160" target="elCqUAHHdQK55MtLX6_z-165" edge="1"><mxGeometry relative="1" as="geometry"><mxPoint x="317" y="915" as="sourcePoint"/></mxGeometry></mxCell><mxCell id="elCqUAHHdQK55MtLX6_z-167" value="80" style="ellipse;whiteSpace=wrap;html=1;aspect=fixed;" parent="1" vertex="1"><mxGeometry x="344" y="880" width="27" height="27" as="geometry"/></mxCell><mxCell id="elCqUAHHdQK55MtLX6_z-168" value="" style="edgeStyle=none;rounded=0;orthogonalLoop=1;jettySize=auto;html=1;endArrow=none;endFill=0;" parent="1" source="elCqUAHHdQK55MtLX6_z-163" target="elCqUAHHdQK55MtLX6_z-167" edge="1"><mxGeometry relative="1" as="geometry"/></mxCell><mxCell id="elCqUAHHdQK55MtLX6_z-169" value="90" style="ellipse;whiteSpace=wrap;html=1;aspect=fixed;fillColor=#ffe6cc;strokeColor=#d79b00;" parent="1" vertex="1"><mxGeometry x="371" y="927" width="27" height="27" as="geometry"/></mxCell><mxCell id="elCqUAHHdQK55MtLX6_z-170" value="" style="edgeStyle=none;rounded=0;orthogonalLoop=1;jettySize=auto;html=1;endArrow=none;endFill=0;" parent="1" source="elCqUAHHdQK55MtLX6_z-167" target="elCqUAHHdQK55MtLX6_z-169" edge="1"><mxGeometry relative="1" as="geometry"/></mxCell><mxCell id="elCqUAHHdQK55MtLX6_z-171" value="66" style="ellipse;whiteSpace=wrap;html=1;aspect=fixed;" parent="1" vertex="1"><mxGeometry x="642" y="867" width="27" height="27" as="geometry"/></mxCell><mxCell id="elCqUAHHdQK55MtLX6_z-172" value="60" style="ellipse;whiteSpace=wrap;html=1;aspect=fixed;" parent="1" vertex="1"><mxGeometry x="615" y="913" width="27" height="27" as="geometry"/></mxCell><mxCell id="elCqUAHHdQK55MtLX6_z-173" value="" style="rounded=0;orthogonalLoop=1;jettySize=auto;html=1;endArrow=none;endFill=0;" parent="1" source="elCqUAHHdQK55MtLX6_z-171" target="elCqUAHHdQK55MtLX6_z-172" edge="1"><mxGeometry relative="1" as="geometry"/></mxCell><mxCell id="elCqUAHHdQK55MtLX6_z-174" value="78" style="ellipse;whiteSpace=wrap;html=1;aspect=fixed;" parent="1" vertex="1"><mxGeometry x="677" y="824" width="27" height="27" as="geometry"/></mxCell><mxCell id="elCqUAHHdQK55MtLX6_z-175" value="" style="edgeStyle=none;rounded=0;orthogonalLoop=1;jettySize=auto;html=1;endArrow=none;endFill=0;" parent="1" source="elCqUAHHdQK55MtLX6_z-171" target="elCqUAHHdQK55MtLX6_z-174" edge="1"><mxGeometry relative="1" as="geometry"/></mxCell><mxCell id="elCqUAHHdQK55MtLX6_z-176" value="70" style="ellipse;whiteSpace=wrap;html=1;aspect=fixed;" parent="1" vertex="1"><mxGeometry x="661" y="922" width="27" height="27" as="geometry"/></mxCell><mxCell id="elCqUAHHdQK55MtLX6_z-177" value="" style="edgeStyle=none;rounded=0;orthogonalLoop=1;jettySize=auto;html=1;endArrow=none;endFill=0;exitX=1;exitY=1;exitDx=0;exitDy=0;" parent="1" source="elCqUAHHdQK55MtLX6_z-171" target="elCqUAHHdQK55MtLX6_z-176" edge="1"><mxGeometry relative="1" as="geometry"><mxPoint x="683" y="903" as="sourcePoint"/></mxGeometry></mxCell><mxCell id="elCqUAHHdQK55MtLX6_z-178" value="80" style="ellipse;whiteSpace=wrap;html=1;aspect=fixed;" parent="1" vertex="1"><mxGeometry x="722" y="875" width="27" height="27" as="geometry"/></mxCell><mxCell id="elCqUAHHdQK55MtLX6_z-179" value="" style="edgeStyle=none;rounded=0;orthogonalLoop=1;jettySize=auto;html=1;endArrow=none;endFill=0;" parent="1" source="elCqUAHHdQK55MtLX6_z-174" target="elCqUAHHdQK55MtLX6_z-178" edge="1"><mxGeometry relative="1" as="geometry"/></mxCell><mxCell id="elCqUAHHdQK55MtLX6_z-180" value="79" style="ellipse;whiteSpace=wrap;html=1;aspect=fixed;fillColor=#ffe6cc;strokeColor=#d79b00;" parent="1" vertex="1"><mxGeometry x="695" y="922" width="27" height="27" as="geometry"/></mxCell><mxCell id="elCqUAHHdQK55MtLX6_z-181" value="" style="edgeStyle=none;rounded=0;orthogonalLoop=1;jettySize=auto;html=1;endArrow=none;endFill=0;" parent="1" source="elCqUAHHdQK55MtLX6_z-178" target="elCqUAHHdQK55MtLX6_z-180" edge="1"><mxGeometry relative="1" as="geometry"/></mxCell><mxCell id="elCqUAHHdQK55MtLX6_z-182" value="66" style="ellipse;whiteSpace=wrap;html=1;aspect=fixed;" parent="1" vertex="1"><mxGeometry x="241" y="1070" width="27" height="27" as="geometry"/></mxCell><mxCell id="elCqUAHHdQK55MtLX6_z-183" value="60" style="ellipse;whiteSpace=wrap;html=1;aspect=fixed;" parent="1" vertex="1"><mxGeometry x="203" y="1122" width="27" height="27" as="geometry"/></mxCell><mxCell id="elCqUAHHdQK55MtLX6_z-184" value="" style="rounded=0;orthogonalLoop=1;jettySize=auto;html=1;endArrow=none;endFill=0;" parent="1" source="elCqUAHHdQK55MtLX6_z-182" target="elCqUAHHdQK55MtLX6_z-183" edge="1"><mxGeometry relative="1" as="geometry"/></mxCell><mxCell id="elCqUAHHdQK55MtLX6_z-185" value="78" style="ellipse;whiteSpace=wrap;html=1;aspect=fixed;" parent="1" vertex="1"><mxGeometry x="295" y="1151" width="27" height="27" as="geometry"/></mxCell><mxCell id="elCqUAHHdQK55MtLX6_z-186" value="" style="edgeStyle=none;rounded=0;orthogonalLoop=1;jettySize=auto;html=1;endArrow=none;endFill=0;entryX=0;entryY=0;entryDx=0;entryDy=0;" parent="1" source="elCqUAHHdQK55MtLX6_z-182" target="elCqUAHHdQK55MtLX6_z-187" edge="1"><mxGeometry relative="1" as="geometry"><mxPoint x="282" y="1104" as="targetPoint"/></mxGeometry></mxCell><mxCell id="elCqUAHHdQK55MtLX6_z-187" value="70" style="ellipse;whiteSpace=wrap;html=1;aspect=fixed;" parent="1" vertex="1"><mxGeometry x="274" y="1111" width="27" height="27" as="geometry"/></mxCell><mxCell id="elCqUAHHdQK55MtLX6_z-188" value="" style="edgeStyle=none;rounded=0;orthogonalLoop=1;jettySize=auto;html=1;endArrow=none;endFill=0;" parent="1" source="elCqUAHHdQK55MtLX6_z-185" target="elCqUAHHdQK55MtLX6_z-187" edge="1"><mxGeometry relative="1" as="geometry"/></mxCell><mxCell id="elCqUAHHdQK55MtLX6_z-189" value="80" style="ellipse;whiteSpace=wrap;html=1;aspect=fixed;" parent="1" vertex="1"><mxGeometry x="320" y="1196" width="27" height="27" as="geometry"/></mxCell><mxCell id="elCqUAHHdQK55MtLX6_z-190" value="" style="edgeStyle=none;rounded=0;orthogonalLoop=1;jettySize=auto;html=1;endArrow=none;endFill=0;" parent="1" source="elCqUAHHdQK55MtLX6_z-185" target="elCqUAHHdQK55MtLX6_z-189" edge="1"><mxGeometry relative="1" as="geometry"/></mxCell><mxCell id="elCqUAHHdQK55MtLX6_z-191" value="72" style="ellipse;whiteSpace=wrap;html=1;aspect=fixed;fillColor=#ffe6cc;strokeColor=#d79b00;" parent="1" vertex="1"><mxGeometry x="268" y="1199" width="27" height="27" as="geometry"/></mxCell><mxCell id="elCqUAHHdQK55MtLX6_z-192" value="" style="edgeStyle=none;rounded=0;orthogonalLoop=1;jettySize=auto;html=1;endArrow=none;endFill=0;exitX=0;exitY=1;exitDx=0;exitDy=0;" parent="1" source="elCqUAHHdQK55MtLX6_z-185" target="elCqUAHHdQK55MtLX6_z-191" edge="1"><mxGeometry relative="1" as="geometry"><mxPoint x="275" y="1186" as="sourcePoint"/></mxGeometry></mxCell><mxCell id="elCqUAHHdQK55MtLX6_z-193" value="66" style="ellipse;whiteSpace=wrap;html=1;aspect=fixed;" parent="1" vertex="1"><mxGeometry x="412" y="1100" width="27" height="27" as="geometry"/></mxCell><mxCell id="elCqUAHHdQK55MtLX6_z-194" value="60" style="ellipse;whiteSpace=wrap;html=1;aspect=fixed;" parent="1" vertex="1"><mxGeometry x="385" y="1149" width="27" height="27" as="geometry"/></mxCell><mxCell id="elCqUAHHdQK55MtLX6_z-195" value="" style="rounded=0;orthogonalLoop=1;jettySize=auto;html=1;endArrow=none;endFill=0;" parent="1" source="elCqUAHHdQK55MtLX6_z-193" target="elCqUAHHdQK55MtLX6_z-194" edge="1"><mxGeometry relative="1" as="geometry"/></mxCell><mxCell id="elCqUAHHdQK55MtLX6_z-196" value="78" style="ellipse;whiteSpace=wrap;html=1;aspect=fixed;" parent="1" vertex="1"><mxGeometry x="476" y="1100" width="27" height="27" as="geometry"/></mxCell><mxCell id="elCqUAHHdQK55MtLX6_z-197" value="" style="edgeStyle=none;rounded=0;orthogonalLoop=1;jettySize=auto;html=1;endArrow=none;endFill=0;entryX=0;entryY=1;entryDx=0;entryDy=0;" parent="1" source="elCqUAHHdQK55MtLX6_z-193" target="elCqUAHHdQK55MtLX6_z-198" edge="1"><mxGeometry relative="1" as="geometry"><mxPoint x="463" y="1100" as="targetPoint"/></mxGeometry></mxCell><mxCell id="elCqUAHHdQK55MtLX6_z-198" value="70" style="ellipse;whiteSpace=wrap;html=1;aspect=fixed;" parent="1" vertex="1"><mxGeometry x="449" y="1057" width="27" height="27" as="geometry"/></mxCell><mxCell id="elCqUAHHdQK55MtLX6_z-199" value="" style="edgeStyle=none;rounded=0;orthogonalLoop=1;jettySize=auto;html=1;endArrow=none;endFill=0;" parent="1" source="elCqUAHHdQK55MtLX6_z-196" target="elCqUAHHdQK55MtLX6_z-198" edge="1"><mxGeometry relative="1" as="geometry"/></mxCell><mxCell id="elCqUAHHdQK55MtLX6_z-200" value="80" style="ellipse;whiteSpace=wrap;html=1;aspect=fixed;" parent="1" vertex="1"><mxGeometry x="501" y="1151" width="27" height="27" as="geometry"/></mxCell><mxCell id="elCqUAHHdQK55MtLX6_z-201" value="" style="edgeStyle=none;rounded=0;orthogonalLoop=1;jettySize=auto;html=1;endArrow=none;endFill=0;" parent="1" source="elCqUAHHdQK55MtLX6_z-196" target="elCqUAHHdQK55MtLX6_z-200" edge="1"><mxGeometry relative="1" as="geometry"/></mxCell><mxCell id="elCqUAHHdQK55MtLX6_z-202" value="72" style="ellipse;whiteSpace=wrap;html=1;aspect=fixed;fillColor=#ffe6cc;strokeColor=#d79b00;" parent="1" vertex="1"><mxGeometry x="449" y="1155" width="27" height="27" as="geometry"/></mxCell><mxCell id="elCqUAHHdQK55MtLX6_z-203" value="" style="edgeStyle=none;rounded=0;orthogonalLoop=1;jettySize=auto;html=1;endArrow=none;endFill=0;exitX=0;exitY=1;exitDx=0;exitDy=0;" parent="1" source="elCqUAHHdQK55MtLX6_z-196" target="elCqUAHHdQK55MtLX6_z-202" edge="1"><mxGeometry relative="1" as="geometry"><mxPoint x="456" y="1182" as="sourcePoint"/></mxGeometry></mxCell><mxCell id="elCqUAHHdQK55MtLX6_z-204" style="edgeStyle=none;rounded=0;orthogonalLoop=1;jettySize=auto;html=1;endArrow=none;endFill=0;" parent="1" source="elCqUAHHdQK55MtLX6_z-205" edge="1"><mxGeometry relative="1" as="geometry"><mxPoint x="161" y="66.33333333333326" as="targetPoint"/></mxGeometry></mxCell><mxCell id="elCqUAHHdQK55MtLX6_z-205" value="" style="whiteSpace=wrap;html=1;" parent="1" vertex="1"><mxGeometry x="265" y="27" width="60" height="93" as="geometry"/></mxCell><mxCell id="elCqUAHHdQK55MtLX6_z-206" value="x" style="text;html=1;align=center;verticalAlign=middle;resizable=0;points=[];autosize=1;strokeColor=none;fillColor=none;" parent="1" vertex="1"><mxGeometry x="144" y="836" width="24" height="26" as="geometry"/></mxCell><mxCell id="elCqUAHHdQK55MtLX6_z-207" value="y" style="text;html=1;align=center;verticalAlign=middle;resizable=0;points=[];autosize=1;strokeColor=none;fillColor=none;" parent="1" vertex="1"><mxGeometry x="168" y="887" width="24" height="26" as="geometry"/></mxCell><mxCell id="elCqUAHHdQK55MtLX6_z-208" value="y" style="text;html=1;align=center;verticalAlign=middle;resizable=0;points=[];autosize=1;strokeColor=none;fillColor=none;" parent="1" vertex="1"><mxGeometry x="98" y="249" width="24" height="26" as="geometry"/></mxCell><mxCell id="elCqUAHHdQK55MtLX6_z-209" value="x" style="text;html=1;align=center;verticalAlign=middle;resizable=0;points=[];autosize=1;strokeColor=none;fillColor=none;" parent="1" vertex="1"><mxGeometry x="69" y="288" width="24" height="26" as="geometry"/></mxCell><mxCell id="G06ExdnryS9kERcxDZy5-1" value="Text" style="text;html=1;align=center;verticalAlign=middle;resizable=0;points=[];autosize=1;" parent="1" vertex="1"><mxGeometry x="764" y="623" width="40" height="20" as="geometry"/></mxCell></root></mxGraphModel>